<svg xmlns="http://www.w3.org/2000/svg" xmlns:xlink="http://www.w3.org/1999/xlink" x="0px" y="0px" width="16px" height="16px" viewBox="0 0 16 16" fill-opacity=".5"><g >
<path fill="#444444" d="M15.285,12.305l-2.578-2.594c-0.39-0.393-1.025-0.393-1.416-0.002L9,12L4,7l2.294-2.294
c0.39-0.39,0.391-1.023,0.001-1.414l-2.58-2.584C3.324,0.317,2.691,0.317,2.3,0.708L0.004,3.003L0,3c0,7.18,5.82,13,13,13
l2.283-2.283C15.673,13.327,15.674,12.696,15.285,12.305z"/>
<path data-color="color-2" fill="#444444" d="M16,8h-2c0-3.309-2.691-6-6-6V0C12.411,0,16,3.589,16,8z"/>
<path data-color="color-2" fill="#444444" d="M12,8h-2c0-1.103-0.897-2-2-2V4C10.206,4,12,5.794,12,8z"/>
</g></svg>